<?xml version="1.0" standalone="no"?><!DOCTYPE svg PUBLIC "-//W3C//DTD SVG 1.1//EN" "http://www.w3.org/Graphics/SVG/1.1/DTD/svg11.dtd"><svg class="icon" height="512" viewBox="0 0 1256 1024" version="1.1" xmlns="http://www.w3.org/2000/svg"><path d="M110.778182 1024c-59.904 0-108.683636-40.122182-108.683637-89.413818V89.367273C2.094545 40.122182 50.874182 0 110.778182 0H246.690909c17.873455 0 32.349091 11.915636 32.349091 26.624 0 14.615273-14.475636 59.671273-32.349091 59.671273H134.237091c-24.343273 0-43.985455 16.151273-43.985455 36.165818v775.912727c0 20.014545 19.642182 36.212364 43.985455 36.212364H246.690909c17.873455 0 32.349091 48.174545 32.349091 62.789818 0 14.708364-14.475636 26.624-32.349091 26.624H110.778182z m855.133091 0c-17.966545 0-32.395636-31.744-32.395637-46.452364 0-14.661818 14.429091-42.961455 32.395637-42.961454h106.030545c24.296727 0 44.032-16.151273 44.032-36.212364V127.115636c0-20.014545-19.735273-36.165818-44.032-36.165818h-106.030545c-17.966545 0-32.395636-25.413818-32.395637-40.029091 0-14.754909 14.429091-50.920727 32.395637-50.920727h135.726545c59.997091 0 108.776727 40.122182 108.776727 89.413818V934.632727c0 49.291636-48.779636 89.413818-108.776727 89.413818h-135.726545zM279.272727 367.848727V279.272727h90.391273v88.576H279.272727z m279.272728 0V279.272727h90.391272v88.576H558.545455z m279.272727 0V279.272727h90.391273v88.576H837.818182z m0 186.181818V465.454545h90.391273v88.576H837.818182z m-279.272727 0V465.454545h90.391272v88.576H558.545455z m-279.272728 0V465.454545h90.391273v88.576H279.272727z m0 186.181819V651.636364h90.391273v88.576H279.272727z m279.272728 0V651.636364h90.391272v88.576H558.545455z m279.272727 0V651.636364h90.391273v88.576H837.818182z" fill="#6CB4EB" /></svg>
